<svg xmlns="http://www.w3.org/2000/svg" viewBox="0 0 60 60" aria-label="Flag of the United Kingdom" role="img">
  <defs>
    <clipPath id="clip-circle">
      <circle cx="30" cy="30" r="30" />
    </clipPath>
  </defs>
  <g clip-path="url(#clip-circle)">
    <rect width="60" height="60" fill="#012169" />

    <polygon points="0,0 8,0 60,52 60,60 52,60 0,8" fill="#FFFFFF" />
    <polygon points="52,0 60,0 60,8 8,60 0,60 0,52" fill="#FFFFFF" />

    <polygon points="0,0 3.5,0 60,56.5 60,60 56.5,60 0,3.5" fill="#C8102E" />
    <polygon points="56.5,0 60,0 60,3.5 3.5,60 0,60 0,56.5" fill="#C8102E" />

    <rect x="24" y="0" width="12" height="60" fill="#FFFFFF" />
    <rect x="0" y="24" width="60" height="12" fill="#FFFFFF" />

    <rect x="26" y="0" width="8" height="60" fill="#C8102E" />
    <rect x="0" y="26" width="60" height="8" fill="#C8102E" />
  </g>
</svg>
